<svg width="200" height="200" viewBox="0 0 200 200" fill="none" xmlns="http://www.w3.org/2000/svg">
<rect width="200" height="200" rx="100" fill="#0C0B1B"/>
<path d="M115.047 191.996C85.1196 191.996 64.9855 168.503 61.2525 163.793C38.831 135.502 55.248 104.248 58.7745 98.2675C59.0604 97.783 59.5846 97.4812 60.1485 97.4812C60.2994 97.4812 60.4424 97.505 60.5854 97.5447C61.2208 97.7274 61.6735 98.2675 61.737 98.9188C62.0388 102.016 63.7385 113.001 72.7929 124.422C83.5788 138.027 99.5193 145.835 116.532 145.827C130.471 145.827 144.243 140.72 157.475 130.649C185.846 109.061 184.781 77.5059 184.766 77.1882L185.544 77.0691C185.727 77.7283 189.904 93.5497 188.634 113.43C187.434 132.047 181.049 158.019 157.396 176.024C143.473 186.619 129.232 191.988 115.063 191.996H115.047ZM52.8812 123.366C51.3959 134.334 52.6032 148.654 63.3096 162.157C66.8996 166.692 86.2871 189.312 115.071 189.312C128.684 189.312 142.385 184.133 155.799 173.927C176.696 158.026 183.654 135.613 185.584 118.076C182.399 134.342 174.154 154.683 153.822 170.155C141.471 179.551 128.7 184.316 115.857 184.316C110.353 184.316 104.753 183.434 99.2254 181.695C84.786 177.144 72.9915 167.136 66.7725 159.281C56.0899 145.803 53.1115 132.984 52.8891 123.358L52.8812 123.366ZM55.9629 115.892C54.565 126.789 56.2408 141.776 68.8296 157.661C74.8103 165.206 86.1442 174.833 100.02 179.201C105.278 180.853 110.599 181.695 115.833 181.695C128.112 181.695 140.359 177.112 152.233 168.074C171.708 153.253 179.802 133.659 182.955 117.345C178.904 131.57 170.342 148.615 152.456 162.228C141.582 170.496 129.828 174.698 117.501 174.698C112.426 174.698 107.295 173.975 102.251 172.553C88.5269 168.685 76.8674 159.996 71.395 153.094C59.5131 138.099 56.4076 124.692 55.9549 115.892H55.9629ZM58.8857 118.648C59.8547 127.257 63.4129 138.782 73.4601 151.458C78.6624 158.026 89.8056 166.31 102.966 170.02C107.764 171.37 112.648 172.061 117.477 172.061C129.232 172.061 140.463 168.05 150.859 160.139C169.484 145.962 177.697 127.798 181.239 113.152C176.632 125.582 167.411 141.3 148.985 155.318C138.787 163.078 127.913 167.009 116.659 167.009C99.2969 167.009 84.2697 157.359 76.6768 149.091C65.875 137.336 60.9984 126.662 58.8777 118.648H58.8857ZM60.8554 115.074C62.5233 123.501 67.1299 134.811 78.6227 147.312C81.204 150.124 90.7905 159.575 105.714 163.149C109.384 164.031 113.077 164.476 116.683 164.476C127.246 164.476 137.587 160.687 147.404 153.213C161.86 142.213 170.445 130.156 175.536 119.776C169.27 130.689 160.358 140.069 148.945 147.765C138.429 154.857 127.342 158.455 116.008 158.455C97.9387 158.455 83.7853 149.266 77.1533 141.395C67.8527 130.355 63.1746 121.491 60.8554 115.074ZM63.1428 113.604C65.2238 119.593 69.6795 128.433 79.1707 139.703C85.4373 147.137 98.8362 155.826 115.984 155.826C126.81 155.826 137.405 152.379 147.484 145.589C158.794 137.964 167.578 128.616 173.686 117.719C169.723 123.326 164.83 128.361 159.072 132.746C145.347 143.19 131.027 148.488 116.524 148.488C98.725 148.488 82.0379 140.315 70.7358 126.05C67.67 122.182 65.1046 117.965 63.1508 113.604H63.1428Z" fill="url(#paint0_linear_30900_22454)"/>
<path d="M118.549 136.201C117.827 136.201 117.199 135.7 117.016 134.993C116.85 134.35 117.096 133.691 117.628 133.31C120.154 131.499 128.819 124.533 134.188 110.983C144.164 85.7899 136.849 51.1212 97.2398 34.5294C88.5587 30.8917 79.536 29.0491 70.4261 29.0491C50.9512 29.0491 37.4331 37.5396 37.2981 37.6269L36.8057 37.0154C37.2902 36.5309 48.8782 25.0064 66.7566 16.1585C80.3303 9.43917 93.9993 6.03186 107.374 6.03186C117.429 6.03186 127.254 8.00953 136.579 11.9172C152.718 18.6762 164.488 28.3263 171.573 40.5974C186.545 66.5136 176.259 95.7021 174.051 101.294C160.899 134.525 125.801 136.209 118.899 136.209H118.549V136.201ZM94.3487 16.4285C105.524 16.4285 116.532 18.6683 127.08 23.0843C139.676 28.366 149.191 36.4514 155.355 47.1261C157.888 51.5183 159.834 56.3235 161.121 61.3987C164.631 75.2185 162.94 89.6659 159.699 97.8466C152.654 115.638 142.591 125.026 135.197 129.815C145.331 125.582 157.475 116.638 164.933 97.791C168.476 88.8399 171.144 74.2099 167.991 60.0167C163.98 41.9556 151.955 28.6122 132.25 20.36C122.354 16.2141 112.013 14.1093 101.529 14.1093C92.0533 14.1093 82.4509 15.7931 72.8723 19.129C79.9808 17.334 87.1687 16.4206 94.3408 16.4206L94.3487 16.4285ZM101.402 11.4724C112.315 11.4724 123.037 13.6487 133.275 17.9376C147.587 23.9341 158.103 32.6152 164.528 43.7347C167.284 48.5001 169.31 53.7898 170.572 59.4528C173.853 74.2337 171.081 89.4514 167.395 98.7679C161.065 114.764 151.447 123.747 143.227 128.759C153.464 124.565 165.267 116.36 171.613 100.333C173.741 94.9555 183.638 66.8551 169.254 41.9317C162.447 30.1451 151.113 20.8604 135.57 14.3476C126.579 10.5829 117.096 8.66875 107.382 8.66875C95.8498 8.66875 84.0712 11.2898 72.3164 16.4682C81.9664 13.1562 91.7277 11.4804 101.417 11.4804L101.402 11.4724ZM78.8609 24.3313C91.4418 24.3313 104.046 27.3653 116.318 33.3539C127.723 38.9136 136.372 46.7131 142.043 56.5379C151.082 72.1845 150.192 89.0384 146.697 98.7123C141.781 112.286 136.444 120.769 132.052 125.987C138.517 120.332 146.006 110.682 151.09 94.479C152.233 90.8334 155.625 77.8078 151.256 63.0984C147.031 48.8496 137.127 38.3735 121.806 31.956C109.36 26.7458 96.8347 24.1009 84.5874 24.1009C82.5145 24.1009 80.4415 24.1804 78.3923 24.3313C78.5432 24.3313 78.7021 24.3313 78.853 24.3313H78.8609ZM84.5954 21.472C97.1921 21.472 110.059 24.1883 122.83 29.5336C134.649 34.4817 143.497 41.9397 149.12 51.6851C157.801 66.7201 156.959 84.5589 153.599 95.2732C148.818 110.507 142.011 120.062 136.134 125.915C143.107 120.776 151.312 111.929 157.269 96.8856C160.35 89.094 161.955 75.298 158.587 62.05C155.609 50.3507 147.555 34.5135 126.071 25.5147C115.873 21.2417 105.262 19.0813 94.5234 19.0813C86.438 19.0813 78.2653 20.2965 70.156 22.7031C74.8738 21.8929 79.7108 21.4879 84.5954 21.4879V21.472ZM77.9793 26.9602C84.8019 27.5956 91.6006 29.3191 98.2564 32.1069C114.165 38.7706 125.912 48.524 133.163 61.081C142.067 76.4973 143.33 95.035 136.626 111.952C134.808 116.543 132.441 120.872 129.645 124.74C133.791 119.942 139.216 111.666 144.235 97.8148C149.93 82.0649 147.079 51.2879 115.174 35.7128C103.26 29.8989 91.0447 26.9523 78.853 26.9523C78.5671 26.9523 78.2732 26.9523 77.9873 26.9523L77.9793 26.9602Z" fill="url(#paint1_linear_30900_22454)"/>
<path d="M77.527 186.079C76.8598 185.905 61.0464 181.6 44.4943 170.568C28.9668 160.227 9.67462 141.705 5.9099 112.222C3.69396 94.8682 6.16406 79.849 13.2487 67.57C28.2123 41.6458 58.6319 35.959 64.5728 35.0774C67.3447 34.6644 70.1167 34.4579 72.8092 34.4579C103.332 34.4579 119.606 60.4694 122.553 65.6876C122.91 66.3151 122.791 67.1093 122.275 67.6176C121.973 67.9115 121.576 68.0703 121.163 68.0703C120.94 68.0703 120.718 68.0227 120.512 67.9274C118.55 67.0378 111.362 64.1388 101.124 64.1388C98.3997 64.1388 95.6357 64.3453 92.9035 64.7504C66.0978 68.7137 39.7289 92.3742 45.1694 134.978C49.6807 170.361 77.5429 185.198 77.8208 185.341L77.5349 186.079H77.527ZM72.7774 37.0948C70.2199 37.0948 67.583 37.2933 64.9541 37.6825C59.2276 38.5244 29.9517 44.0047 15.56 68.9281C8.7533 80.7147 6.38645 95.17 8.51503 111.889C11.835 137.932 27.7675 155.167 41.9925 165.612C29.499 154.715 16.0048 137.408 12.7722 112.072C10.8104 96.6711 13.0661 83.2325 19.4836 72.113C22.2316 67.3476 25.7978 62.9395 30.0708 59.0239C41.23 48.794 55.7964 43.5838 65.7086 42.1223C69.2906 41.5902 72.8489 41.3281 76.2721 41.3281C88.2334 41.3281 97.4149 44.5925 103.848 48.111C94.5 40.8039 84.0715 37.1107 72.7853 37.1107L72.7774 37.0948ZM80.9819 50.9226C77.1775 50.9226 73.1904 51.2244 69.1397 51.828C60.8478 53.0512 48.1002 58.5632 38.3151 68.1021C29.6658 76.529 19.9839 91.4211 22.9306 114.526C25.8931 137.749 37.5129 153.936 48.4338 164.333C39.9751 154.127 30.9763 138.29 28.0455 115.32C26.4253 102.612 28.4506 91.2226 34.0818 81.4772C42.7629 66.4421 58.6319 58.2535 69.5845 55.8072C76.2562 54.314 82.6896 53.5595 88.6941 53.5595C94.6985 53.5595 99.8929 54.2505 104.865 55.6086C97.804 52.4952 89.7901 50.9226 80.9819 50.9226ZM76.2403 43.9412C72.9601 43.9412 69.5369 44.2033 66.0819 44.7116C56.5589 46.1174 42.5564 51.1211 31.8341 60.9539C18.1969 73.4553 12.653 90.5475 15.3614 111.738C18.459 136.018 31.3813 152.816 43.9304 163.713C33.637 153.094 23.153 137.162 20.3096 114.859C18.5781 101.309 20.8258 89.0305 26.9892 78.3558C29.5228 73.9636 32.7157 69.8812 36.4645 66.2197C46.6785 56.2679 60.0377 50.5175 68.7426 49.2308C72.9203 48.6113 77.0425 48.3016 80.9978 48.3016C93.7852 48.3016 103.022 51.5739 108.669 54.457C101.696 49.1594 91.0688 43.9571 76.2323 43.9571L76.2403 43.9412ZM88.4002 56.2281C82.6419 56.2281 76.5024 56.9509 70.1484 58.3647C66.4234 59.1986 53.4455 62.7727 42.882 73.908C32.6521 84.6859 28.5379 98.5058 30.6427 114.978C32.946 133 39.0935 146.454 45.5348 156.057C39.2205 145.168 35.5511 132.77 34.5901 119.029C33.7085 106.369 36.1309 94.9794 41.8018 85.1625C50.8324 69.5159 65.8675 61.8514 76.002 60.0485C83.047 58.7936 89.6074 58.1582 95.5007 58.1582C99.6546 58.1582 103.483 58.4679 106.946 59.0874C101.378 57.1892 95.1592 56.2281 88.4002 56.2281ZM95.4134 60.803C89.663 60.803 83.2852 61.4225 76.4706 62.6377C59.9821 65.5764 34.7489 83.439 37.219 118.854C38.1642 132.46 41.8733 144.747 48.2511 155.485C45.3759 149.25 43.4618 142.491 42.5484 135.311C40.3643 118.203 42.9376 103.152 50.1891 90.5951C59.0925 75.1788 74.5168 64.8139 92.5144 62.1532C95.4372 61.7243 98.3759 61.5019 101.259 61.5019C103.205 61.5019 105.135 61.5972 107.033 61.7958C103.578 61.1366 99.6864 60.803 95.4213 60.803H95.4134Z" fill="url(#paint2_linear_30900_22454)"/>
<defs>
<linearGradient id="paint0_linear_30900_22454" x1="82.4112" y1="167.843" x2="176.68" y2="59.5083" gradientUnits="userSpaceOnUse">
<stop stop-color="#038C8C"/>
<stop offset="0.13" stop-color="#048686" stop-opacity="0.95"/>
<stop offset="0.33" stop-color="#077678" stop-opacity="0.8"/>
<stop offset="0.57" stop-color="#0B5B60" stop-opacity="0.56"/>
<stop offset="0.84" stop-color="#12373F" stop-opacity="0.23"/>
<stop offset="1" stop-color="#171F29" stop-opacity="0"/>
</linearGradient>
<linearGradient id="paint1_linear_30900_22454" x1="178.154" y1="83.3897" x2="37.3196" y2="55.2701" gradientUnits="userSpaceOnUse">
<stop stop-color="#038C8C"/>
<stop offset="0.13" stop-color="#048686" stop-opacity="0.95"/>
<stop offset="0.33" stop-color="#077678" stop-opacity="0.8"/>
<stop offset="0.57" stop-color="#0B5B60" stop-opacity="0.56"/>
<stop offset="0.84" stop-color="#12373F" stop-opacity="0.23"/>
<stop offset="1" stop-color="#171F29" stop-opacity="0"/>
</linearGradient>
<linearGradient id="paint2_linear_30900_22454" x1="48.5307" y1="41.5462" x2="91.986" y2="178.422" gradientUnits="userSpaceOnUse">
<stop stop-color="#038C8C"/>
<stop offset="0.13" stop-color="#048686" stop-opacity="0.95"/>
<stop offset="0.33" stop-color="#077678" stop-opacity="0.8"/>
<stop offset="0.57" stop-color="#0B5B60" stop-opacity="0.56"/>
<stop offset="0.84" stop-color="#12373F" stop-opacity="0.23"/>
<stop offset="1" stop-color="#171F29" stop-opacity="0"/>
</linearGradient>
</defs>
</svg>
