<svg width="389" height="122" viewBox="0 0 389 122" fill="none" xmlns="http://www.w3.org/2000/svg">
<g clip-path="url(#clip0_30491_29925)">
<g clip-path="url(#clip1_30491_29925)">
<path d="M71.7799 121.42C52.2399 121.42 39.0899 106.08 36.6499 103C22.0099 84.5299 32.7299 64.1199 35.0299 60.2199C35.2199 59.8999 35.5599 59.7099 35.9299 59.7099C36.0299 59.7099 36.1199 59.7199 36.2199 59.7499C36.6399 59.8699 36.9299 60.2199 36.9699 60.6499C37.1699 62.6699 38.2799 69.8499 44.1899 77.2999C51.2299 86.1799 61.6399 91.2799 72.7499 91.2799C81.8499 91.2799 90.8499 87.9499 99.4899 81.3699C118.01 67.2699 117.32 46.6699 117.31 46.4599L117.82 46.3799C117.94 46.8099 120.67 57.1399 119.83 70.1199C119.05 82.2799 114.88 99.2399 99.4299 110.99C90.3399 117.91 81.0399 121.42 71.7899 121.42H71.7799ZM31.1899 76.6099C30.2199 83.7699 31.0099 93.1199 37.9999 101.94C40.3499 104.9 52.9999 119.67 71.7999 119.67C80.6899 119.67 89.6399 116.29 98.3899 109.63C112.03 99.2499 116.58 84.6099 117.84 73.1599C115.76 83.7799 110.38 97.0599 97.0999 107.16C89.0299 113.3 80.6899 116.41 72.3099 116.41C68.7199 116.41 65.0599 115.83 61.4499 114.7C52.0199 111.73 44.3199 105.19 40.2599 100.07C33.2799 91.2699 31.3399 82.8999 31.1899 76.6099ZM33.1999 71.7299C32.2899 78.8499 33.3799 88.6299 41.5999 98.9999C45.5099 103.93 52.9099 110.21 61.9599 113.06C65.3899 114.14 68.8699 114.69 72.2899 114.69C80.3099 114.69 88.2999 111.7 96.0599 105.8C108.78 96.1199 114.06 83.3299 116.12 72.6799C113.48 81.9699 107.89 93.0999 96.2099 101.99C89.1099 107.39 81.4299 110.13 73.3899 110.13C70.0699 110.13 66.7299 109.66 63.4299 108.73C54.4699 106.2 46.8499 100.53 43.2799 96.0199C35.5199 86.2299 33.4999 77.4699 33.1999 71.7299ZM35.1099 73.5299C35.7399 79.1499 38.0699 86.6799 44.6299 94.9599C48.0299 99.2499 55.2999 104.66 63.8999 107.08C67.0299 107.96 70.2199 108.41 73.3799 108.41C81.0599 108.41 88.3899 105.79 95.1799 100.62C107.34 91.3599 112.7 79.4999 115.02 69.9399C112.01 78.0599 105.99 88.3199 93.9599 97.4699C87.2999 102.54 80.1999 105.11 72.8499 105.11C61.5099 105.11 51.6999 98.8099 46.7399 93.4099C39.6799 85.7299 36.4999 78.7599 35.1199 73.5299H35.1099ZM36.3999 71.1999C37.4899 76.6999 40.4999 84.0899 47.9999 92.2499C49.6899 94.0899 55.9499 100.26 65.6899 102.59C68.0899 103.16 70.4899 103.46 72.8499 103.46C79.7499 103.46 86.4999 100.99 92.9099 96.1099C102.35 88.9299 107.95 81.0599 111.28 74.2799C107.19 81.3999 101.37 87.5299 93.9199 92.5499C87.0499 97.1799 79.8199 99.5299 72.4099 99.5299C60.6099 99.5299 51.3699 93.5299 47.0399 88.3899C40.9699 81.1799 37.9099 75.3899 36.3999 71.1999ZM37.8899 70.2399C39.2499 74.1499 42.1599 79.9199 48.3499 87.2799C52.4399 92.1399 61.1899 97.8099 72.3899 97.8099C79.4599 97.8099 86.3799 95.5599 92.9599 91.1299C100.35 86.1499 106.08 80.0499 110.07 72.9299C107.48 76.5899 104.29 79.8799 100.53 82.7399C91.5699 89.5599 82.2199 93.0199 72.7499 93.0199C61.1299 93.0199 50.2299 87.6799 42.8499 78.3699C40.8499 75.8399 39.1699 73.0899 37.8999 70.2399H37.8899Z" fill="url(#paint0_linear_30491_29925)"/>
<path d="M74.0599 84.99C73.5899 84.99 73.1799 84.66 73.0599 84.2C72.9499 83.78 73.1099 83.35 73.4599 83.1C75.1099 81.92 80.7699 77.37 84.2699 68.52C90.7799 52.07 86.0099 29.43 60.1399 18.6C54.4699 16.22 48.5799 15.02 42.6299 15.02C29.9099 15.02 21.0899 20.57 20.9999 20.62L20.6799 20.22C20.9999 19.9 28.5599 12.38 40.2299 6.6C49.1099 2.22 58.0299 0 66.7599 0C73.3199 0 79.7399 1.29 85.8299 3.84C96.3699 8.25 104.05 14.55 108.68 22.57C118.45 39.49 111.74 58.55 110.3 62.2C101.71 83.9 78.7899 85 74.2899 85H74.0599V84.99ZM58.2599 6.78C65.5499 6.78 72.7499 8.24 79.6299 11.13C87.8599 14.58 94.0699 19.86 98.0899 26.83C99.7499 29.7 101.01 32.84 101.86 36.15C104.15 45.17 103.05 54.61 100.93 59.95C96.3299 71.57 89.7599 77.7 84.9299 80.83C91.5499 78.06 99.4799 72.22 104.35 59.92C106.66 54.07 108.4 44.52 106.35 35.25C103.73 23.46 95.8799 14.74 83.0099 9.35C76.5499 6.64 69.7999 5.27 62.9499 5.27C56.7599 5.27 50.4899 6.37 44.2399 8.55C48.8799 7.38 53.5699 6.78 58.2599 6.78ZM62.8599 3.54C69.9799 3.54 76.9899 4.96 83.6699 7.76C93.0199 11.68 99.8799 17.34 104.08 24.6C105.88 27.71 107.2 31.16 108.03 34.86C110.17 44.51 108.36 54.45 105.95 60.53C101.82 70.97 95.5399 76.84 90.1699 80.11C96.8599 77.37 104.56 72.01 108.7 61.55C110.09 58.04 116.55 39.69 107.16 23.42C102.72 15.72 95.3199 9.66 85.1599 5.41C79.2899 2.95 73.0999 1.7 66.7599 1.7C59.2299 1.7 51.5399 3.41 43.8599 6.79C50.1599 4.63 56.5399 3.53 62.8599 3.53V3.54ZM48.1399 11.94C56.3599 11.94 64.5899 13.92 72.5999 17.83C80.0499 21.46 85.6999 26.55 89.3999 32.97C95.2999 43.19 94.7199 54.19 92.4399 60.51C89.2299 69.38 85.7499 74.91 82.8799 78.32C87.0999 74.63 91.9899 68.33 95.3099 57.75C96.0599 55.37 98.2699 46.86 95.4199 37.26C92.6599 27.96 86.1899 21.12 76.1899 16.93C68.0599 13.53 59.8899 11.8 51.8899 11.8C50.5299 11.8 49.1799 11.85 47.8399 11.95C47.9399 11.95 48.0399 11.95 48.1399 11.95V11.94ZM51.8799 10.07C60.1099 10.07 68.5099 11.84 76.8499 15.33C84.5699 18.56 90.3399 23.43 94.0199 29.79C99.6899 39.61 99.1399 51.26 96.9399 58.25C93.8199 68.2 89.3699 74.44 85.5399 78.26C90.0899 74.9 95.4499 69.13 99.3399 59.31C101.35 54.22 102.4 45.22 100.2 36.56C98.2599 28.92 92.9999 18.58 78.9699 12.7C72.3099 9.91 65.3799 8.5 58.3699 8.5C53.0899 8.5 47.7499 9.29 42.4599 10.86C45.5399 10.33 48.6999 10.06 51.8899 10.06L51.8799 10.07ZM47.5599 13.65C52.0099 14.06 56.4499 15.19 60.7999 17.01C71.1899 21.36 78.8599 27.73 83.5899 35.93C89.3999 46 90.2299 58.1 85.8499 69.15C84.6599 72.15 83.1199 74.98 81.2899 77.5C83.9999 74.37 87.5399 68.96 90.8099 59.92C94.5299 49.64 92.6699 29.54 71.8299 19.37C64.0499 15.58 56.0699 13.65 48.1099 13.65C47.9199 13.65 47.7299 13.65 47.5399 13.65H47.5599Z" fill="url(#paint1_linear_30491_29925)"/>
<path d="M47.2799 117.56C46.8499 117.44 36.5199 114.64 25.7099 107.43C15.5699 100.68 2.96993 88.5801 0.509927 69.3301C-0.940073 58.0001 0.679927 48.1901 5.29993 40.1801C15.0699 23.2501 34.9299 19.5401 38.8099 18.9601C40.6199 18.6901 42.4299 18.5601 44.1899 18.5601C64.1199 18.5601 74.7399 35.5501 76.6699 38.9501C76.8999 39.3601 76.8299 39.8801 76.4899 40.2101C76.2899 40.4001 76.0399 40.5101 75.7599 40.5101C75.6099 40.5101 75.4699 40.4801 75.3299 40.4201C74.0499 39.8401 69.3499 37.9501 62.6699 37.9501C60.8899 37.9501 59.0899 38.0801 57.2999 38.3501C39.7999 40.9401 22.5799 56.3901 26.1299 84.2001C29.0799 107.3 47.2699 116.99 47.4499 117.08L47.2599 117.56H47.2799ZM44.1799 20.2801C42.5099 20.2801 40.7899 20.4101 39.0699 20.6601C35.3299 21.2101 16.2099 24.7901 6.81993 41.0601C2.37993 48.7601 0.829927 58.1901 2.21993 69.1101C4.38993 86.1201 14.7899 97.3701 24.0799 104.19C15.9199 97.0801 7.10993 85.7801 4.99993 69.2301C3.71993 59.1801 5.18993 50.4001 9.37993 43.1401C11.1799 40.0301 13.4999 37.1501 16.2899 34.5901C23.5799 27.9101 33.0899 24.5101 39.5599 23.5501C41.8999 23.2001 44.2199 23.0301 46.4599 23.0301C54.2699 23.0301 60.2699 25.1601 64.4599 27.4601C58.3599 22.6901 51.5499 20.2801 44.1799 20.2801ZM49.5399 29.3101C47.0599 29.3101 44.4499 29.5101 41.8099 29.9001C36.3999 30.7001 28.0699 34.3001 21.6799 40.5301C16.0299 46.0301 9.70993 55.7601 11.6299 70.8401C13.5599 86.0001 21.1499 96.5701 28.2799 103.36C22.7599 96.7001 16.8799 86.3501 14.9599 71.3601C13.8999 63.0601 15.2299 55.6301 18.8999 49.2601C24.5699 39.4401 34.9299 34.1001 42.0799 32.5001C46.4399 31.5301 50.6299 31.0301 54.5599 31.0301C58.4899 31.0301 61.8699 31.4801 65.1199 32.3701C60.5099 30.3401 55.2799 29.3101 49.5299 29.3101H49.5399ZM46.4499 24.7501C44.3099 24.7501 42.0799 24.9201 39.8199 25.2501C33.5999 26.1701 24.4599 29.4401 17.4599 35.8501C8.55993 44.0101 4.93993 55.1701 6.69993 69.0101C8.71993 84.8601 17.1599 95.8301 25.3499 102.95C18.6299 96.0201 11.7799 85.6101 9.92993 71.0501C8.79993 62.2001 10.2699 54.1801 14.2899 47.2101C15.9499 44.3401 18.0299 41.6701 20.4799 39.2901C27.1499 32.7901 35.8699 29.0401 41.5599 28.2001C44.2899 27.8001 46.9799 27.5901 49.5599 27.5901C57.9099 27.5901 63.9399 29.7301 67.6299 31.6101C63.0799 28.1501 56.1399 24.7501 46.4499 24.7501ZM54.3899 32.7701C50.6299 32.7701 46.6199 33.2401 42.4699 34.1701C40.0399 34.7101 31.5599 37.0501 24.6699 44.3201C17.9899 51.3601 15.2999 60.3801 16.6799 71.1401C18.1799 82.9101 22.1999 91.6901 26.3999 97.9601C22.2799 90.8501 19.8799 82.7501 19.2599 73.7801C18.6799 65.5201 20.2699 58.0801 23.9699 51.6601C29.8699 41.4401 39.6899 36.4401 46.2999 35.2601C50.8999 34.4401 55.1899 34.0201 59.0299 34.0201C61.7399 34.0201 64.2399 34.2201 66.4999 34.6301C62.8599 33.3901 58.7999 32.7601 54.3899 32.7601V32.7701ZM58.9699 35.7601C55.2199 35.7601 51.0499 36.1601 46.5999 36.9601C35.8399 38.8801 19.3599 50.5401 20.9699 73.6701C21.5899 82.5601 24.0099 90.5801 28.1699 97.5901C26.2899 93.5201 25.0499 89.1101 24.4499 84.4201C23.0199 73.2501 24.6999 63.4201 29.4399 55.2201C35.2499 45.1501 45.3199 38.3901 57.0799 36.6501C58.9899 36.3701 60.9099 36.2301 62.7899 36.2301C64.0599 36.2301 65.3199 36.2901 66.5599 36.4201C64.2999 35.9901 61.7599 35.7701 58.9799 35.7701L58.9699 35.7601Z" fill="url(#paint2_linear_30491_29925)"/>
<path d="M146.11 98.9901V95.1201L186.09 39.0501H146.3V35.0901H191.35V38.9601L151.37 95.0301H190.89V98.9901H146.12H146.11Z" fill="#038C8C"/>
<path d="M199.63 77.4802C199.63 63.9802 208.01 54.7102 220.36 54.7102C231.87 54.7102 239.8 62.8102 239.8 74.6002V77.4802H203.87C204.24 89.2702 210.5 96.2902 220.91 96.2902C228.74 96.2902 233.71 92.9602 235.46 86.5702H239.79C237.21 95.4802 230.85 100.07 220.91 100.07C208.11 100.07 199.63 91.0702 199.63 77.4802ZM203.96 74.0602H235.46C235.46 64.7002 229.47 58.4902 220.35 58.4902C211.23 58.4902 204.97 64.6102 203.95 74.0602H203.96Z" fill="#038C8C"/>
<path d="M274.34 58.7602H271.02C262.82 58.7602 257.48 64.6102 257.48 72.7102V98.9902H253.24V55.7902H257.2L257.57 62.7202C259.32 57.8602 264.2 54.7102 270.47 54.7102C271.85 54.7102 272.87 54.8002 274.34 55.1602V58.7602Z" fill="#038C8C"/>
<path d="M302.71 54.7102C315.33 54.7102 324.63 64.3402 324.63 77.3902C324.63 90.4402 315.33 100.07 302.71 100.07C290.09 100.07 280.79 90.4402 280.79 77.3902C280.79 64.3402 290.09 54.7102 302.71 54.7102ZM302.71 96.2902C313.03 96.2902 320.3 88.4602 320.3 77.3902C320.3 66.3202 313.02 58.4902 302.71 58.4902C292.4 58.4902 285.12 66.3202 285.12 77.3902C285.12 88.4602 292.4 96.2902 302.71 96.2902Z" fill="#038C8C"/>
<path d="M343.79 75.7701L377.41 35.0901H382.75L360.37 62.0901L383.22 98.9901H378.06L357.43 65.6001L343.8 82.0701V98.9901H339.38V35.0901H343.8V75.7701H343.79Z" fill="#038C8C"/>
</g>
</g>
<defs>
<linearGradient id="paint0_linear_30491_29925" x1="50.4699" y1="105.65" x2="112.02" y2="34.9099" gradientUnits="userSpaceOnUse">
<stop stop-color="#038C8C"/>
<stop offset="0.13" stop-color="#109292" stop-opacity="0.95"/>
<stop offset="0.33" stop-color="#35A3A3" stop-opacity="0.8"/>
<stop offset="0.57" stop-color="#72BEBE" stop-opacity="0.56"/>
<stop offset="0.84" stop-color="#C5E4E4" stop-opacity="0.23"/>
<stop offset="1" stop-color="white" stop-opacity="0"/>
</linearGradient>
<linearGradient id="paint1_linear_30491_29925" x1="112.991" y1="50.4904" x2="21.031" y2="32.1307" gradientUnits="userSpaceOnUse">
<stop stop-color="#038C8C"/>
<stop offset="0.13" stop-color="#109292" stop-opacity="0.95"/>
<stop offset="0.33" stop-color="#35A3A3" stop-opacity="0.8"/>
<stop offset="0.57" stop-color="#72BEBE" stop-opacity="0.56"/>
<stop offset="0.84" stop-color="#C5E4E4" stop-opacity="0.23"/>
<stop offset="1" stop-color="white" stop-opacity="0"/>
</linearGradient>
<linearGradient id="paint2_linear_30491_29925" x1="28.3393" y1="23.1593" x2="56.7102" y2="112.539" gradientUnits="userSpaceOnUse">
<stop stop-color="#038C8C"/>
<stop offset="0.13" stop-color="#109292" stop-opacity="0.95"/>
<stop offset="0.33" stop-color="#35A3A3" stop-opacity="0.8"/>
<stop offset="0.57" stop-color="#72BEBE" stop-opacity="0.56"/>
<stop offset="0.84" stop-color="#C5E4E4" stop-opacity="0.23"/>
<stop offset="1" stop-color="white" stop-opacity="0"/>
</linearGradient>
<clipPath id="clip0_30491_29925">
<rect width="388.28" height="121.42" fill="white"/>
</clipPath>
<clipPath id="clip1_30491_29925">
<rect width="388.28" height="121.42" fill="white"/>
</clipPath>
</defs>
</svg>
